<svg preserveAspectRatio="xMidYMid meet" data-bbox="0 0 383.99 92.84" viewBox="0 0 383.99 92.84" xmlns="http://www.w3.org/2000/svg" data-type="color" role="presentation" aria-hidden="true" aria-label=""><defs><style>#comp-lrph87yi svg [data-color="1"] {fill: #676C72;}</style></defs>
    <g>
        <path d="M21.64 75.09c9.34 0 16.92-7.59 16.92-16.93s-7.58-16.92-16.92-16.92h-3.89c-1.39 0-2.4-1.11-2.4-2.4 0-1.39 1.01-2.5 2.4-2.5h19.33V21.82H17.75C8.42 21.82.83 29.5.83 38.84s7.58 16.92 16.92 16.92h3.89c1.29 0 2.4 1.11 2.4 2.4a2.39 2.39 0 0 1-2.4 2.41H0v14.52h21.64Z" fill="#88d3ee" data-color="1"></path>
        <path fill="#88d3ee" d="M77.15 74.53h16.37L74.56 45.22l20.06-22.2H76.87L59.39 42.63V0H45.43v74.53h13.96V61.4l5.55-6.01 12.21 19.14z" data-color="1"></path>
        <path fill="#88d3ee" d="M100.39 92.84h14.71l28.11-69.81h-14.8l-11.65 29.22-12.39-29.22H89.11l20.62 46.6-9.34 23.21z" data-color="1"></path>
        <path d="M168.25 75.27c8.6 0 16.74-4.25 21.73-11.46l-11.46-7.86c-2.31 3.42-6.2 5.46-10.27 5.46-6.94 0-12.48-5.64-12.48-12.48s5.55-12.48 12.48-12.48c3.98 0 7.86 1.95 10.17 5.27l11.38-7.95c-2.41-3.42-5.64-6.2-9.25-8.14-3.79-2.04-8.04-3.05-12.3-3.05-3.61 0-7.03.64-10.27 2.03-3.14 1.39-6.01 3.24-8.41 5.64-2.4 2.5-4.35 5.27-5.64 8.42-1.39 3.23-2.04 6.75-2.04 10.26s.65 7.03 2.04 10.27c1.29 3.14 3.24 5.92 5.64 8.41 2.41 2.41 5.27 4.25 8.41 5.64 3.24 1.3 6.66 2.04 10.27 2.04Z" fill="#88d3ee" data-color="1"></path>
        <path d="M209.33 74.53V51.78c0-8.88 7.21-16.18 16.18-16.18V21.73c-4.07 0-8.05.83-11.75 2.4-3.51 1.48-6.75 3.7-9.52 6.47-2.77 2.68-4.9 5.92-6.47 9.53-1.57 3.7-2.31 7.58-2.31 11.65v22.75h13.87Z" fill="#88d3ee" data-color="1"></path>
        <path d="M314.55 61.4c-6.84 0-12.48-5.64-12.48-12.48s5.64-12.48 12.48-12.48 12.48 5.64 12.48 12.48-5.64 12.48-12.48 12.48Zm24.32-22.75a28.865 28.865 0 0 0-5.64-8.42c-2.5-2.4-5.27-4.25-8.41-5.64-3.24-1.39-6.66-2.04-10.27-2.04s-7.03.65-10.27 2.04a28.687 28.687 0 0 0-8.41 5.64c-2.4 2.41-4.25 5.27-5.64 8.42-1.29 3.23-2.04 6.66-2.04 10.26v39.3l13.87 4.62V72.12c.74.37 1.48.74 2.22 1.02 3.24 1.39 6.75 2.13 10.27 2.13s7.03-.74 10.27-2.13c3.14-1.29 5.92-3.14 8.41-5.64 2.4-2.4 4.25-5.18 5.64-8.32 1.39-3.24 2.04-6.75 2.04-10.27s-.65-7.03-2.04-10.26Z" fill="#88d3ee" data-color="1"></path>
        <path d="M367.07 75.09c9.34 0 16.92-7.59 16.92-16.93s-7.58-16.92-16.92-16.92h-3.88a2.39 2.39 0 0 1-2.41-2.4c0-1.39 1.02-2.5 2.41-2.5h19.32V21.82h-19.32c-9.34 0-16.93 7.68-16.93 17.02s7.59 16.92 16.93 16.92h3.88c1.29 0 2.4 1.11 2.4 2.4a2.39 2.39 0 0 1-2.4 2.41h-21.64v14.52h21.64Z" fill="#88d3ee" data-color="1"></path>
        <path d="M253.56 23.62h-1.15c-.21 0-.51.02-.68.04-.17 0-.48.03-.7.05-.22.02-.54.05-.7.07-.17.02-.45.05-.62.08-.17.02-.45.06-.63.09s-.49.08-.69.12c-.2.04-.51.1-.68.13-.16.04-.47.1-.67.15-.2.05-.56.14-.79.2-.23.07-.55.16-.71.2s-.46.14-.67.21c-.21.07-.55.19-.76.26-.21.07-.52.2-.71.27-.19.07-.46.18-.6.24-.14.06-.4.18-.58.25s-.55.26-.84.4c-.29.14-.7.35-.91.47s-.55.3-.74.42c-.19.11-.48.28-.63.38-.16.1-.45.29-.65.42s-.5.33-.66.45a25.204 25.204 0 0 0-1.38 1.04c-.21.17-.52.42-.68.56-.16.14-.39.34-.5.45-.11.1-.39.36-.61.57-.23.21-.55.54-.73.72-.18.18-.42.44-.54.57-.12.13-.34.38-.48.54-.14.16-.36.43-.5.59-.13.16-.34.43-.47.59-.13.17-.32.43-.43.58-.11.15-.31.44-.45.63-.14.2-.36.52-.49.73-.13.21-.33.53-.45.71-.11.19-.29.49-.39.68-.11.19-.29.53-.41.75-.12.22-.3.6-.41.83-.11.23-.27.57-.36.77s-.24.57-.35.83c-.1.26-.26.66-.34.89-.08.23-.2.57-.26.76-.06.19-.15.48-.2.65-.05.17-.12.43-.16.56-.04.14-.12.45-.18.68a25.352 25.352 0 0 0-.31 1.45c-.04.17-.08.45-.11.61-.03.17-.07.46-.1.66s-.07.53-.09.73c-.02.21-.06.56-.08.79-.02.22-.04.52-.05.67 0 .15-.02.57-.04.94-.02.52-.02.83 0 1.35.01.37.03.79.04.93 0 .14.03.45.05.68.02.23.05.58.07.79.02.2.06.5.09.67.02.17.07.46.1.66.04.2.09.53.14.75.04.21.11.55.15.74.04.19.11.5.16.68.05.19.12.49.18.68.05.18.16.54.23.79.08.25.2.62.27.82l.22.62c.06.15.16.42.24.61.07.18.19.47.26.63.07.16.2.45.29.65.09.2.28.58.42.87.14.29.36.7.48.92.12.22.31.55.41.73.11.18.26.42.34.55s.21.33.3.46c.08.13.26.39.39.57.13.18.38.53.55.76.18.23.42.55.55.72.13.16.32.4.43.53s.34.39.5.58c.17.19.46.51.65.71.19.2.52.53.73.73.21.2.47.45.59.55.12.11.3.27.41.37.11.09.29.25.4.34.11.09.3.25.43.36.12.1.36.28.52.41.16.12.4.3.54.4.14.1.35.25.47.34.12.09.4.27.62.41.21.14.54.35.72.46a40.917 40.917 0 0 0 1.26.73c.12.07.37.19.55.28.18.09.48.22.67.3a18.671 18.671 0 0 0 1.12.43c.1.03.3.1.46.14.16.05.44.12.62.17.18.05.47.11.64.14.17.03.45.07.64.1.18.02.44.05.57.06.13 0 .4.02.61.02s.47 0 .59-.02c.12-.01.31-.03.42-.05.11-.01.32-.05.46-.07.14-.03.37-.09.51-.13.14-.04.35-.11.46-.15a7.329 7.329 0 0 0 .87-.41c.11-.06.28-.17.38-.23.1-.06.22-.15.28-.2.05-.04.19-.15.3-.25.11-.09.29-.27.4-.38.11-.12.26-.28.33-.37.07-.09.2-.25.29-.38.09-.12.23-.33.31-.47.09-.14.2-.34.26-.45.05-.11.15-.31.22-.46.07-.15.17-.4.23-.55.06-.16.14-.4.19-.54.04-.14.12-.41.17-.61.05-.19.12-.48.15-.64.04-.16.08-.4.1-.54.02-.14.06-.39.09-.56.02-.17.05-.43.07-.56.02-.14.04-.4.05-.57.02-.18.04-.48.05-.69.01-.26.02-1.34.02-3.69 0-2.38 0-3.41.02-3.66.01-.19.03-.45.04-.57 0-.12.03-.36.05-.51.02-.15.05-.37.07-.48.02-.11.06-.27.09-.36.02-.08.07-.21.09-.28.03-.07.08-.18.12-.25.04-.06.13-.18.2-.25s.18-.16.25-.2c.06-.04.18-.11.25-.14.08-.04.21-.1.3-.14.09-.04.25-.09.35-.12.1-.03.27-.09.39-.12.11-.04.41-.11.65-.17.25-.06.74-.18 1.1-.27.36-.09.82-.2 1.03-.25.2-.05.52-.14.71-.2.19-.05.5-.16.71-.23.21-.07.51-.18.68-.24.16-.07.39-.16.49-.2.11-.04.3-.13.44-.2.13-.06.37-.18.52-.26.15-.08.38-.2.49-.27.12-.07.35-.21.52-.33.17-.11.4-.27.5-.36.1-.08.26-.22.36-.3.1-.09.3-.28.44-.43.14-.14.34-.36.43-.47s.23-.28.3-.37c.07-.09.18-.25.25-.35a7.831 7.831 0 0 0 .46-.74c.08-.14.21-.39.3-.56s.2-.43.27-.58c.06-.15.16-.39.21-.53.05-.14.12-.35.16-.46.04-.12.11-.33.14-.47.04-.14.11-.38.14-.52.04-.14.09-.39.13-.55.03-.16.09-.44.12-.62.03-.19.08-.5.1-.68.02-.19.05-.48.07-.64.02-.16.04-.44.04-.61 0-.18.02-.59.02-.92s0-.73-.02-.89c0-.16-.02-.39-.04-.51 0-.12-.03-.33-.04-.46-.01-.13-.05-.41-.07-.61-.03-.2-.07-.49-.1-.64-.03-.15-.08-.4-.11-.54s-.08-.38-.12-.5c-.03-.13-.1-.37-.14-.54-.05-.16-.12-.42-.18-.57-.05-.16-.15-.41-.21-.57-.06-.16-.16-.41-.23-.56-.06-.14-.18-.38-.25-.54-.08-.15-.19-.36-.25-.45-.05-.1-.16-.27-.23-.38-.07-.11-.13-.2-.14-.19l-.02.19c0 .1-.04.28-.07.39-.03.12-.09.3-.12.41a7.525 7.525 0 0 1-.43.83c-.07.1-.21.3-.31.44-.11.14-.27.34-.36.46-.1.11-.28.31-.4.44s-.36.36-.52.51c-.16.15-.38.35-.5.45-.12.1-.34.28-.49.4-.15.12-.4.31-.54.41-.14.11-.35.26-.46.33-.11.07-.36.25-.57.39-.21.14-.54.38-.73.52-.2.14-.5.38-.68.53-.18.14-.41.34-.51.43-.11.09-.34.31-.52.48a19.311 19.311 0 0 0-1.09 1.13c-.07.09-.23.27-.34.41-.12.14-.3.38-.42.53-.12.15-.29.38-.38.5-.09.12-.25.36-.35.52-.11.16-.24.37-.29.46-.06.09-.16.27-.23.39s-.2.36-.29.52c-.09.16-.23.45-.32.64s-.22.48-.29.64c-.07.16-.18.43-.24.59l-.22.59c-.05.16-.13.39-.17.51-.04.11-.11.34-.15.5s-.13.48-.18.7c-.06.23-.14.6-.19.82-.05.23-.11.58-.14.78-.04.2-.08.51-.1.68-.02.18-.06.46-.07.65-.02.18-.05.48-.06.66-.02.18-.04.58-.06.89-.02.31-.04.59-.04.62 0 .04 0 .05-.02.04 0-.02-.04-.12-.06-.25-.02-.12-.09-.39-.14-.6a20 20 0 0 0-.21-.82c-.07-.24-.16-.57-.21-.75-.05-.17-.15-.48-.22-.68-.07-.2-.2-.56-.29-.8-.09-.24-.23-.59-.31-.79-.08-.2-.21-.49-.28-.65-.07-.16-.22-.47-.34-.7-.11-.23-.29-.55-.38-.72-.09-.17-.24-.42-.32-.56-.09-.14-.22-.36-.31-.49a17.283 17.283 0 0 0-.99-1.38c-.07-.09-.21-.25-.3-.36-.09-.11-.29-.32-.43-.48-.15-.16-.37-.38-.49-.5s-.29-.27-.38-.35c-.09-.08-.25-.21-.35-.3-.11-.09-.29-.23-.41-.32-.11-.09-.32-.23-.45-.32s-.36-.24-.51-.34c-.16-.1-.39-.24-.53-.32-.14-.07-.44-.23-.68-.34-.23-.11-.73-.34-1.1-.52-.38-.17-.91-.42-1.2-.56a13.3 13.3 0 0 1-.82-.44c-.16-.1-.38-.23-.47-.3-.09-.07-.24-.18-.34-.25-.09-.09-.25-.22-.34-.31a3.27 3.27 0 0 1-.3-.35c-.07-.1-.18-.25-.22-.35-.05-.09-.11-.24-.15-.34l-.06-.18-.15.23c-.09.13-.22.36-.3.53-.08.17-.18.39-.23.49-.04.11-.1.28-.14.38-.04.1-.09.28-.12.4s-.07.31-.1.43c-.02.11-.05.31-.07.45-.02.13-.05.34-.06.45-.01.13-.02.44-.02.8 0 .43 0 .67.03.89l.07.58c.02.16.07.42.1.57.03.16.09.4.12.55.04.14.11.39.15.54.05.15.14.41.2.57.06.16.15.39.21.52l.21.46c.06.12.18.35.26.5.08.15.22.38.3.52.08.13.22.34.3.46s.22.31.3.41c.08.1.22.27.31.38.09.11.3.33.46.49.16.16.38.38.5.47.11.1.3.25.42.34.12.09.28.2.35.25.07.05.2.13.29.18.08.05.26.16.39.23s.38.21.54.3c.17.09.45.23.62.31a20.717 20.717 0 0 0 1.34.57c.19.07.5.18.69.25.19.07.54.18.77.24.23.07.74.21 1.13.32.39.11.83.23.99.28.15.05.36.11.45.15.1.04.23.09.3.13.07.04.21.12.31.18.12.08.24.18.38.31.11.11.24.27.3.35.06.09.15.22.2.31.05.09.12.23.16.33.04.1.11.27.15.39.04.12.11.34.14.49.04.15.09.41.12.57.03.16.06.44.08.61a19.023 19.023 0 0 1 .09 2.6c0 .39-.02 1.11-.04 1.62-.01.5-.03 1.39-.04 1.96s-.02 1.18-.04 1.33c0 .16-.03.46-.05.66-.02.21-.05.5-.07.64-.02.14-.06.4-.09.57-.03.16-.08.45-.12.64-.04.18-.11.45-.14.57-.04.13-.11.34-.15.48-.04.14-.11.32-.14.4-.04.09-.12.29-.2.43-.07.15-.18.36-.25.47-.06.11-.17.28-.24.38s-.2.26-.29.37c-.09.1-.22.24-.3.31-.07.07-.19.16-.25.21-.06.05-.18.13-.27.19-.09.06-.22.14-.29.17-.07.04-.2.11-.3.14-.1.04-.25.1-.35.13-.09.03-.24.07-.34.09-.09.02-.27.06-.38.07-.12.02-.36.04-.54.05-.24.02-.4.02-.66 0-.19-.01-.46-.04-.6-.05-.14-.02-.34-.05-.44-.07-.1-.02-.27-.05-.38-.08-.11-.02-.29-.07-.41-.1a7.86 7.86 0 0 1-.49-.14c-.15-.05-.4-.13-.56-.2-.16-.06-.42-.16-.57-.23-.16-.07-.45-.2-.66-.3-.2-.1-.52-.27-.7-.37-.18-.1-.45-.26-.61-.35-.15-.09-.41-.25-.57-.35-.16-.1-.44-.29-.62-.41s-.41-.28-.52-.36c-.1-.07-.3-.22-.44-.32-.14-.11-.38-.29-.53-.41-.15-.12-.39-.3-.52-.42-.14-.12-.38-.32-.53-.45-.15-.14-.38-.34-.5-.46s-.38-.36-.56-.54c-.18-.18-.47-.48-.64-.66-.17-.18-.41-.44-.53-.58-.12-.14-.31-.36-.42-.49-.11-.13-.3-.36-.43-.52-.12-.16-.35-.45-.5-.65-.15-.2-.33-.45-.4-.55-.08-.11-.23-.33-.34-.5-.11-.17-.29-.45-.39-.61-.11-.17-.27-.45-.37-.62a22.455 22.455 0 0 1-.74-1.35c-.11-.22-.26-.52-.33-.67-.07-.16-.2-.43-.27-.61-.08-.18-.2-.48-.28-.66-.07-.18-.18-.45-.23-.6-.05-.14-.14-.39-.2-.55-.06-.16-.14-.42-.19-.57-.05-.15-.14-.46-.21-.7-.07-.23-.17-.61-.22-.83-.05-.22-.14-.58-.19-.8s-.12-.58-.16-.81c-.04-.23-.1-.59-.13-.82-.04-.22-.08-.57-.1-.77-.02-.21-.05-.5-.07-.67-.01-.16-.04-.46-.05-.67-.02-.22-.03-.73-.04-1.24v-1.31c.01-.25.03-.61.05-.8.01-.19.04-.5.06-.68.02-.18.05-.49.07-.67.02-.19.07-.48.09-.67.03-.18.08-.49.12-.69s.1-.54.15-.75c.05-.21.13-.57.19-.8.06-.23.16-.59.22-.82.07-.22.16-.54.21-.71.05-.17.14-.44.2-.59.05-.15.15-.43.22-.61s.19-.48.27-.68c.08-.19.2-.47.27-.64.07-.16.21-.48.32-.7.11-.22.27-.55.37-.74.1-.19.25-.46.33-.62.09-.16.23-.41.32-.56s.24-.39.33-.54c.09-.15.26-.41.37-.57.11-.16.27-.4.36-.53.09-.12.28-.39.42-.58.15-.2.37-.49.5-.65.13-.16.33-.41.45-.55l.45-.52a24.143 24.143 0 0 1 1.31-1.36c.19-.18.48-.46.66-.61s.47-.41.67-.58c.2-.16.48-.39.62-.5.14-.11.35-.27.46-.36.11-.08.33-.24.49-.36s.43-.29.59-.41c.16-.11.42-.27.57-.37.15-.09.36-.23.48-.29.11-.07.33-.2.48-.28.15-.08.39-.22.54-.3.15-.08.46-.24.71-.36.24-.12.57-.27.72-.34.16-.07.41-.18.56-.25.15-.06.41-.17.57-.23.17-.07.42-.16.55-.21.14-.05.36-.13.49-.18.13-.04.41-.14.63-.21.22-.07.53-.16.7-.21.16-.04.43-.12.59-.16.16-.04.44-.11.62-.15.18-.04.5-.11.71-.15.21-.04.54-.11.73-.14.19-.03.48-.08.65-.1.16-.02.39-.05.5-.07.11-.02.31-.04.45-.05.14-.02.43-.04.67-.06a19.995 19.995 0 0 1 2.22-.05c.57 0 1.07.02 1.3.04.21.01.51.04.66.05.16.02.42.04.58.06.16.02.41.05.55.07.14.02.44.06.66.1.23.04.57.1.76.14.2.04.5.1.69.14.19.04.49.11.68.16.18.05.5.13.71.19a30.354 30.354 0 0 1 1.44.46c.2.07.52.19.71.26.18.07.52.21.74.3.22.09.53.23.68.3.15.07.51.24.81.39.3.15.7.36.9.48.2.11.53.3.73.43.2.12.51.31.68.42a21.697 21.697 0 0 1 1.22.85c.17.13.42.32.55.41s.35.28.5.4c.15.12.39.32.53.45.14.12.38.34.53.47a41.014 41.014 0 0 1 1.58 1.58c.15.16.38.43.53.6l.53.64c.15.19.38.48.51.66.13.18.3.41.37.51l.39.56c.14.21.35.54.48.74.12.2.32.54.45.75.12.21.29.52.38.68.09.16.22.43.31.6s.23.46.32.66c.09.19.21.48.29.64.07.16.18.44.26.62.07.18.19.5.27.7.07.2.2.55.27.77.07.22.18.59.25.83.07.23.17.62.23.87.06.24.14.59.19.79s.11.54.15.77c.04.23.11.63.14.88.04.26.09.64.11.84.02.21.05.52.07.69.01.17.03.43.04.58 0 .15.02.55.04.89v1.11c0 .27-.03.64-.04.81-.02.17-.04.45-.06.61-.02.16-.05.42-.07.57-.02.15-.07.4-.09.55l-.13.65c-.05.21-.13.53-.18.71-.05.19-.13.46-.18.6-.05.15-.12.38-.17.52-.05.14-.14.4-.22.59-.07.18-.19.47-.26.64-.07.16-.23.5-.34.73-.12.24-.27.54-.34.67s-.21.36-.3.52-.29.46-.42.67c-.14.21-.36.51-.48.67s-.3.39-.4.51c-.1.12-.27.33-.39.46s-.36.38-.53.55-.41.4-.53.51l-.22.2-.37-.37c-.2-.2-.47-.45-.59-.55-.12-.1-.3-.25-.41-.33l-.32-.23a5.75 5.75 0 0 0-.75-.44c-.14-.07-.36-.17-.47-.22-.11-.05-.31-.12-.44-.16s-.33-.1-.44-.12c-.11-.03-.3-.07-.41-.09-.11-.02-.29-.04-.39-.05-.11-.01-.37-.02-.61-.02-.3 0-.5 0-.68.03l-.47.07c-.12.02-.32.06-.44.09s-.33.09-.47.13c-.14.05-.4.14-.56.21-.17.06-.47.2-.67.3-.2.1-.47.25-.6.32l-.53.33c-.16.11-.39.27-.51.35s-.31.23-.42.32c-.11.09-.22.18-.23.19l-.03.02.7.83c.57.68.7.84.67.85-.01 0-.78.68-1.71 1.48-1.39 1.2-1.7 1.48-1.75 1.57a.67.67 0 0 0-.1.21.787.787 0 0 0-.02.43c.01.07.05.17.07.23.03.05.08.14.12.18.04.04.11.11.17.15.06.04.16.09.22.11.08.02.17.04.26.04s.17-.01.25-.04c.07-.02.16-.07.21-.1.05-.04.26-.21.46-.38.2-.18.94-.82 1.64-1.43.71-.61 1.29-1.12 1.29-1.12s1.07 1.25 2.36 2.79c1.29 1.54 2.35 2.8 2.35 2.81s-.02.03-.05.05c-.02.02-.79.68-1.7 1.48-1.17 1.02-1.68 1.47-1.71 1.53-.03.05-.07.13-.1.19-.03.07-.05.15-.05.25s0 .18.02.25c.02.05.05.15.08.21.03.07.09.15.16.21.06.06.15.12.21.16.06.03.16.06.21.07.06.01.16.02.23.01.07 0 .18-.02.23-.04.05-.02.13-.06.18-.09.05-.04.51-.43 1.03-.88s1.03-.89 1.13-.98c.11-.09.43-.38.72-.63s.53-.45.54-.45.32.38.68.81c.37.44.68.81.7.83l.03.03.22-.19c.12-.11.34-.31.48-.45.15-.14.35-.35.46-.46l.36-.4c.09-.11.25-.31.35-.44.1-.13.25-.34.34-.48.09-.13.21-.34.28-.45.07-.12.17-.32.24-.45.06-.13.15-.32.2-.43.04-.11.11-.29.15-.41.04-.12.11-.33.14-.47.04-.14.08-.34.1-.45.02-.11.05-.29.06-.41.02-.11.03-.32.04-.46v-.54c0-.16-.03-.39-.05-.5-.02-.12-.05-.31-.07-.42-.02-.11-.06-.26-.08-.32l-.09-.31c-.04-.1-.11-.3-.16-.44s-.16-.38-.24-.54c-.08-.16-.19-.38-.25-.48l-.11-.2.21-.19c.12-.1.42-.39.68-.65.26-.25.58-.59.71-.75a16.426 16.426 0 0 0 .98-1.23c.12-.16.33-.47.47-.68.14-.21.34-.52.43-.68.1-.16.23-.4.31-.53.07-.13.22-.4.32-.61.11-.21.25-.5.32-.65.07-.15.19-.43.27-.61.08-.18.2-.47.26-.65.07-.17.19-.52.27-.77.09-.25.2-.6.25-.78.05-.18.14-.5.19-.7a23.44 23.44 0 0 0 .33-1.7c.03-.22.07-.53.09-.7.02-.17.05-.45.06-.62.02-.18.04-.48.04-.69 0-.21.02-.57.02-.81s0-.64-.02-.89c0-.25-.02-.58-.04-.74 0-.16-.03-.47-.05-.68-.02-.21-.05-.52-.07-.69-.02-.16-.05-.44-.07-.61-.02-.17-.07-.48-.1-.68-.04-.2-.09-.55-.14-.77s-.11-.55-.15-.74c-.04-.19-.12-.52-.18-.74-.05-.22-.14-.55-.19-.73s-.16-.54-.23-.77c-.07-.24-.2-.63-.29-.87-.08-.24-.21-.6-.29-.8-.08-.2-.21-.54-.3-.74-.09-.2-.22-.52-.3-.7-.08-.18-.27-.57-.42-.88-.15-.3-.35-.7-.45-.87-.1-.18-.27-.49-.39-.69-.12-.2-.31-.51-.42-.7-.12-.18-.32-.5-.45-.69a25.184 25.184 0 0 0-1.4-1.91c-.16-.19-.43-.53-.6-.72-.17-.2-.45-.51-.61-.69-.17-.18-.52-.55-.79-.82-.27-.27-.62-.61-.78-.76-.16-.15-.39-.36-.52-.46-.12-.11-.33-.29-.47-.41-.14-.12-.39-.32-.55-.45-.17-.13-.43-.34-.59-.45-.16-.12-.4-.3-.54-.4-.14-.1-.41-.28-.6-.41-.19-.13-.44-.29-.56-.37s-.35-.22-.52-.32c-.16-.1-.43-.26-.61-.36-.17-.1-.45-.25-.62-.35-.17-.09-.49-.26-.71-.37-.21-.11-.55-.27-.74-.36-.19-.09-.5-.23-.7-.31-.2-.09-.53-.22-.75-.31s-.53-.21-.7-.27-.44-.16-.61-.21c-.17-.05-.46-.15-.66-.21s-.51-.15-.69-.2l-.68-.18c-.19-.05-.51-.12-.71-.17-.2-.04-.49-.11-.64-.13-.15-.03-.46-.09-.71-.13-.24-.04-.61-.09-.81-.12-.2-.03-.54-.07-.76-.09-.21-.02-.59-.06-.83-.08-.25-.02-.6-.04-.79-.05-.18-.01-.68-.02-1.11-.02Z" fill="#88d3ee" data-color="1"></path>
    </g>
</svg>