<!--?xml version="1.0" encoding="UTF-8"?-->
<svg id="Layer_2" data-name="Layer 2" xmlns="http://www.w3.org/2000/svg" viewBox="0 0 1033.01 289.41" width="1033.010009765625" height="289.4100036621094">
  <defs>
    <style>
      .cls-1 {
        fill: #71a6d6;
        stroke: #000;
        stroke-miterlimit: 10;
        stroke-width: 3px;
      }
    </style>
  </defs>
  <g id="Layer_1-2" data-name="Layer 1">
    <g id="cO5RtV.tif">
      <g>
        <g>
          <path d="M335.93,288.97c-2.29-.24-11.01-2.28-12.23-3.79-1.79-2.24.95-12.38,1.2-15.91,2.1-29.75,3.62-60.65,4.62-90.31.67-19.91-.02-39.9.5-59.81-17.22-1.14-3.91-8.68-4.56-9.26-24.46-3.31-44.44-12.89-60.23-29.74-6.07-6.48-13.42-11.34-3.95-17.95,10.84-7.58,41.15-16.65,54.47-13.88,8.3,1.73,5,3.68,6.23,7.73.87,2.85,7.92,12.22,10.22,15.17,5.39,6.94,11.38,13.08,18.45,18.72,1.76.28,15.99-11.94,17.84-14.02,3.1-3.47,3.77-8.15,6.51-10.55,1.74-1.53,9.36-4.75,11.95-5.61,6.08-2.03,28-6.58,31.96-1.5,6.9,8.86-6.59,24.71-13.02,31.34-1.53,1.57-10.86,8.85-10.86,9.53,0,.35,2.93,2.78,3.58,5.96,5.81,28.3,1.3,70.92.02,100.27-.9,20.43-.3,43.51-3.4,63.57-1.19,7.71-.7,11.22-9.27,14.37-6.66,2.45-21.29,5.34-28.44,5.84-5.53.39-16.14.39-21.57-.17Z" class="svg-elem-1"></path>
          <g>
            <path d="M177.99,8.58c1.53,1.32,3.79,9.73,4.54,12.19,4.55,14.82,6.57,30.14,8.28,45.41l17.43-10.76c11.68-10.81,28.95-20.4,45.56-23.64,27.07-5.29,6.25,11.07-1.84,17.74-1.88,1.54-25.77,18.42-24.59,19.45,1.19.02,2.39.22,3.48.69,7.28,3.14,28.08,25.5,36.05,32.27,3.38,2.87,15.29,13.46,18.22,14.72,3.23,1.39,12.89.76,6.38,6.72-8.68,7.95-42.94,15.58-54.68,12.39-7.33-1.99-27.63-18.47-34.27-23.87-1.93-1.57-12.03-12.25-13.95-10.58-1.66,6.57-4.93,14.64-8.5,20.58-3.84,6.39-18.13,12.29-25.83,14.53-4.16,1.21-19.07,5.1-21.86,2.12-1.17-8.65-6.64-18.11-7.61-26.51-2.29-19.92-1.34-42.12-3.26-62.66-.44-4.76-2.93-10.08-1.49-14.88,1.54-5.12,19.67-15.72,25.26-18.43,5.77-2.79,27.52-11.92,32.69-7.46Z" class="svg-elem-2"></path>
            <path d="M82.95,40.45c.84.78,1.71,5.77,1.58,6.96-.71,6.66-19.69,14.68-25.97,17.33,4.38,4.47,8.19,9.33,12.97,13.5,9.77,8.5,25.63,15.95,34.06,24.06,3.64,3.5,6.46,8.48,4.13,13.1-7.72,15.31-55.09,32.2-73.06,32.45-11.97.17-21.75-4.55-31.28-10.42,1.34-6.78,20.11-15.74,26.68-15.34,3.28.2,10.63,4.09,14.88,5.06,1.23.28,1.78,1.61,1.61-.58-10.93-12.26-31.94-19.2-42.82-30.48-10.14-10.52-5.58-18.46,3.96-27.57,13.77-13.15,48.85-31.27,69.27-29.14,1.19.12,3.17.31,3.98,1.06Z" class="svg-elem-3"></path>
          </g>
        </g>
        <g>
          <g>
            <path d="M829.25,115.51l14.97,82.53c-1.83,8.84-1.44,24.4-11.14,29.37-8.09,4.14-26.36,8.26-35.34,6.39-3.37-.7-5.81-4.92-7.56-7.47-11.34-16.55-15.65-31.51-20.24-50.27-6.07-24.84-14.24-59.19-15.63-84.16-.32-5.64-.76-21.87.49-26.62,1.87-7.12,26-14.27,33.53-15.99,6.9-1.58,16.14-3.28,23.2-3.47,1.87-.05,6.6,1.03,6.91.88.39-.2,3.99-4.78,5.81-6.16,9.74-7.38,23.99-17.02,37.23-16.93,15.08.1,29.05,12.93,31.12,25.88,2.4,14.97-6.67,28.83-17.24,39.94-11.98,12.6-28.37,21.43-46.11,26.1ZM825.61,97c.48.46,13.16-2.77,13.62-3.24,3.7-3.73,1.49-20.14.3-25.14-1.9-7.99-5.37-17.2-16.31-16.81-2.71,15.14,1.85,30.06,2.38,45.19Z" class="svg-elem-4"></path>
            <path d="M986.4,34.04c2.91,2.5-2.12,7.77-4.62,9.33-4.34,2.7-16.04,4.29-17.59,5.57-3.15,2.59-7.1,17.03-5.86,20.91,1.7,5.33,26.01,12.86,32.17,15.75,7.64,3.58,22.28,13.4,27.35,19.37,3.53,4.16,4,11.57-.62,15.29-3.69,2.98-17.16,8.18-22.17,9.42-25.48,6.33-82.15,4.94-104.33-8.9-15.69-9.79-1.34-10.99,10.13-9.71,10.13,1.13,9.96,5.89,17.15,9.02,10.77,4.69,25.94,2.98,34.97-4.1,5.83-4.56,6.63-6.8,1.05-11.72-8.02-7.07-20.56-13.62-30.83-17.77-16.31-6.6-38.92-7.39-23.93-28.52,10.06-14.17,30.68-21.44,48.67-24.19,6.95-1.06,33.9-3.63,38.43.25Z" class="svg-elem-5"></path>
          </g>
          <path d="M655,43.18c-.35-.27-.57-.07-.84-.12l-51.65,16.15c-5.21,0,.68-11.25-1.41-14.36-2.78-4.14-23.5.79-28.25,2.15-7.46,2.13-33.83,12.43-35.62,19.15-.88,3.31.89,20.55,1.68,24.72.85,4.52,6.5,13.97,7.56,18.43-12.31,4.39-23.76,9.23-38.32,2.72-12.23-5.47-13.38-22.92-13.48-33.79-.07-7.38,1.8-13.96,2.27-21.22,5.27-1.64,18.72-7.27,21.08-11.7,1.86-3.49-4.18-10.74-8.12-11.94-11.93-3.61-39.1,9.24-48.99,15.85-20.97,14-39.35,43.92-23.97,66.34,16.6,24.2,61.37,16.07,85.82,6.65,8.18-3.15,16.4-7.69,23.71-12.24,2.71,3.64,11.63,14.93,15.99,15.84,7.59,1.59,34.48-2.46,37.64-9.37,1.48-3.23,2.41-13.99,2.43-17.61.02-4.37.76-11.74,3.91-16.31,5.79-8.39,69.65-23.13,48.58-39.33Z" class="svg-elem-6"></path>
          <path d="M740.3,64.46c-2.17-11.59-5.53-17.37-19.66-18.43-13.52-1.01-22.79,2.61-33.67,5.11-4.98,1.14-9.89,2.52-14.61,4.35l-13.34,5.16c-6.98,3.23-8.64,15.38-9.49,23.02-1.65,14.78,2.47,36.38,19.15,43.56,13.94,5.99,49.09,9.29,60.07-2.29,11.84-12.49,14.48-44.85,11.55-60.47ZM725.04,94.8c-.47,1.64-7.01,17.07-10.21,14.78l6.04-44.27c5.33,10.19,7.36,18.38,4.16,29.5Z" class="svg-elem-7"></path>
        </g>
      </g>
    </g>
    <g>
      <g>
        <path class="cls-1 svg-elem-8" d="M346.84,283.1c-2.29-.24-11.01-2.28-12.23-3.79-1.79-2.24.95-12.38,1.2-15.91,2.1-29.75,3.62-60.65,4.62-90.31.67-19.91-.02-39.9.5-59.81-17.22-1.14-3.91-8.68-4.56-9.26-24.46-3.31-44.44-12.89-60.23-29.74-6.07-6.48-13.42-11.34-3.95-17.95,10.84-7.58,41.15-16.65,54.47-13.88,8.3,1.73,5,3.68,6.23,7.73.87,2.85,7.92,12.22,10.22,15.17,5.39,6.94,11.38,13.08,18.45,18.72,1.76.28,15.99-11.94,17.84-14.02,3.1-3.47,3.77-8.15,6.51-10.55,1.74-1.53,9.36-4.75,11.95-5.61,6.08-2.03,28-6.58,31.96-1.5,6.9,8.86-6.59,24.71-13.02,31.34-1.53,1.57-10.86,8.85-10.86,9.53,0,.35,2.93,2.78,3.58,5.96,5.81,28.3,1.3,70.92.02,100.27-.9,20.43-.3,43.51-3.4,63.57-1.19,7.71-.7,11.22-9.27,14.37-6.66,2.45-21.29,5.34-28.44,5.84-5.53.39-16.14.39-21.57-.17Z"></path>
        <g>
          <path class="cls-1 svg-elem-9" d="M188.89,2.71c1.53,1.32,3.79,9.73,4.54,12.19,4.55,14.82,6.57,30.14,8.28,45.41l17.43-10.76c11.68-10.81,28.95-20.4,45.56-23.64,27.07-5.29,6.25,11.07-1.84,17.74-1.88,1.54-25.77,18.42-24.59,19.45,1.19.02,2.39.22,3.48.69,7.28,3.14,28.08,25.5,36.05,32.27,3.38,2.87,15.29,13.46,18.22,14.72,3.23,1.39,12.89.76,6.38,6.72-8.68,7.95-42.94,15.58-54.68,12.39-7.33-1.99-27.63-18.47-34.27-23.87-1.93-1.57-12.03-12.25-13.95-10.58-1.66,6.57-4.93,14.64-8.5,20.58-3.84,6.39-18.13,12.29-25.83,14.53-4.16,1.21-19.07,5.1-21.86,2.12-1.17-8.65-6.64-18.11-7.61-26.51-2.29-19.92-1.34-42.12-3.26-62.66-.44-4.76-2.93-10.08-1.49-14.88,1.54-5.12,19.67-15.72,25.26-18.43,5.77-2.79,27.52-11.92,32.69-7.46Z"></path>
          <path class="cls-1 svg-elem-10" d="M93.85,34.58c.84.78,1.71,5.77,1.58,6.96-.71,6.66-19.69,14.68-25.97,17.33,4.38,4.47,8.19,9.33,12.97,13.5,9.77,8.5,25.63,15.95,34.06,24.06,3.64,3.5,6.46,8.48,4.13,13.1-7.72,15.31-55.09,32.2-73.06,32.45-11.97.17-21.75-4.55-31.28-10.42,1.34-6.78,20.11-15.74,26.68-15.34,3.28.2,10.63,4.09,14.88,5.06,1.23.28,1.78,1.61,1.61-.58-10.93-12.26-31.94-19.2-42.82-30.48-10.14-10.52-5.58-18.46,3.96-27.57,13.77-13.15,48.85-31.27,69.27-29.14,1.19.12,3.17.31,3.98,1.06Z"></path>
        </g>
      </g>
      <g>
        <g>
          <path class="cls-1 svg-elem-11" d="M840.16,109.65l14.97,82.53c-1.83,8.84-1.44,24.4-11.14,29.37-8.09,4.14-26.36,8.26-35.34,6.39-3.37-.7-5.81-4.92-7.56-7.47-11.34-16.55-15.65-31.51-20.24-50.27-6.07-24.84-14.24-59.19-15.63-84.16-.32-5.64-.76-21.87.49-26.62,1.87-7.12,26-14.27,33.53-15.99,6.9-1.58,16.14-3.28,23.2-3.47,1.87-.05,6.6,1.03,6.91.88.39-.2,3.99-4.78,5.81-6.16,9.74-7.38,23.99-17.02,37.23-16.93,15.08.1,29.05,12.93,31.12,25.88,2.4,14.97-6.67,28.83-17.24,39.94-11.98,12.6-28.37,21.43-46.11,26.1ZM836.51,91.13c.48.46,13.16-2.77,13.62-3.24,3.7-3.73,1.49-20.14.3-25.14-1.9-7.99-5.37-17.2-16.31-16.81-2.71,15.14,1.85,30.06,2.38,45.19Z"></path>
          <path class="cls-1 svg-elem-12" d="M997.3,28.17c2.91,2.5-2.12,7.77-4.62,9.33-4.34,2.7-16.26,7.16-17.81,8.44-3.15,2.59-6.88,14.15-5.64,18.03,1.7,5.33,26.01,12.86,32.17,15.75,7.64,3.58,22.28,13.4,27.35,19.37,3.53,4.16,4,11.57-.62,15.29-3.69,2.98-17.16,8.18-22.17,9.42-25.48,6.33-82.15,4.94-104.33-8.9-15.69-9.79-1.34-10.99,10.13-9.71,10.13,1.13,9.96,5.89,17.15,9.02,10.77,4.69,25.94,2.98,34.97-4.1,5.83-4.56,6.63-6.8,1.05-11.72-8.02-7.07-20.56-13.62-30.83-17.77-16.31-6.6-38.92-7.39-23.93-28.52,10.06-14.17,30.68-21.44,48.67-24.19,6.95-1.06,33.9-3.63,38.43.25Z"></path>
        </g>
        <path class="cls-1 svg-elem-13" d="M665.9,37.31c-.35-.27-.57-.07-.84-.12l-51.65,16.15c-5.21,0,.68-11.25-1.41-14.36-2.78-4.14-23.5.79-28.25,2.15-7.46,2.13-33.83,12.43-35.62,19.15-.88,3.31.89,20.55,1.68,24.72.85,4.52,6.5,13.97,7.56,18.43-12.31,4.39-23.76,9.23-38.32,2.72-12.23-5.47-13.38-22.92-13.48-33.79-.07-7.38,1.8-13.96,2.27-21.22,5.27-1.64,18.72-7.27,21.08-11.7,1.86-3.49-4.18-10.74-8.12-11.94-11.93-3.61-39.1,9.24-48.99,15.85-20.97,14-39.35,43.92-23.97,66.34,16.6,24.2,61.37,16.07,85.82,6.65,8.18-3.15,16.4-7.69,23.71-12.24,2.71,3.64,11.63,14.93,15.99,15.84,7.59,1.59,34.48-2.46,37.64-9.37,1.48-3.23,2.41-13.99,2.43-17.61.02-4.37.76-11.74,3.91-16.31,5.79-8.39,69.65-23.13,48.58-39.33Z"></path>
        <path class="cls-1 svg-elem-14" d="M751.2,58.59c-2.17-11.59-5.53-17.37-19.66-18.43-13.52-1.01-22.79,2.61-33.67,5.11-4.98,1.14-9.89,2.52-14.61,4.35l-13.34,5.16c-6.98,3.23-8.64,15.38-9.49,23.02-1.65,14.78,2.47,36.38,19.15,43.56,13.94,5.99,49.09,9.29,60.07-2.29,11.84-12.49,14.48-44.85,11.55-60.47ZM735.94,88.93c-.47,1.64-7.01,17.07-10.21,14.78l6.04-44.27c5.33,10.19,7.36,18.38,4.16,29.5Z"></path>
      </g>
    </g>
  </g>
</svg>
